<?xml version="1.0" encoding="UTF-8" standalone="no"?>
<svg
   viewBox="0 0 512 512"
   version="1.1"
   id="svg1"
   sodipodi:docname="rotate-right-solid.svg"
   inkscape:version="1.4.2 (ebf0e940d0, 2025-05-08)"
   xmlns:inkscape="http://www.inkscape.org/namespaces/inkscape"
   xmlns:sodipodi="http://sodipodi.sourceforge.net/DTD/sodipodi-0.dtd"
   xmlns="http://www.w3.org/2000/svg"
   xmlns:svg="http://www.w3.org/2000/svg">
  <defs
     id="defs1" />
  <sodipodi:namedview
     id="namedview1"
     pagecolor="#505050"
     bordercolor="#ffffff"
     borderopacity="1"
     inkscape:showpageshadow="0"
     inkscape:pageopacity="0"
     inkscape:pagecheckerboard="1"
     inkscape:deskcolor="#505050"
     inkscape:zoom="1.0813762"
     inkscape:cx="187.72376"
     inkscape:cy="276.9619"
     inkscape:window-width="1920"
     inkscape:window-height="1043"
     inkscape:window-x="0"
     inkscape:window-y="0"
     inkscape:window-maximized="1"
     inkscape:current-layer="svg1" />
  <!--!Font Awesome Free 7.1.0 by @fontawesome - https://fontawesome.com License - https://fontawesome.com/license/free Copyright 2025 Fonticons, Inc.-->
  <path
     d="M488 192l-144 0c-9.7 0-18.5-5.8-22.2-14.8s-1.7-19.3 5.2-26.2l46.7-46.7c-75.3-58.6-184.3-53.3-253.5 15.9-75 75-75 196.5 0 271.5s196.5 75 271.5 0c8.2-8.2 15.5-16.9 21.9-26.1 10.1-14.5 30.1-18 44.6-7.9s18 30.1 7.9 44.6c-8.5 12.2-18.2 23.8-29.1 34.7-100 100-262.1 100-362 0S-25 175 75 75c94.3-94.3 243.7-99.6 344.3-16.2L471 7c6.9-6.9 17.2-8.9 26.2-5.2S512 14.3 512 24l0 144c0 13.3-10.7 24-24 24z"
     id="path1"
     style="fill:#ffffff;fill-opacity:1" />
</svg>
